<?xml version="1.0" encoding="UTF-8"?>
<svg id="Capa_1" data-name="Capa 1" xmlns="http://www.w3.org/2000/svg" viewBox="0 0 251.63 244.46">
  <defs>
    <style>
      .cls-1 {
        fill: #fdf3ea;
      }
    </style>
  </defs>
  <path class="cls-1" d="M226.58,116.95c-5.07-46.38-59.9-57.12-84.02-17.84-10.12,16.49-11.19,36.53-28.71,48.12-13.69,9.05-30.46,7.36-40.37-6.14l-13.35,10.33c19.49,25.58,55.87,22.35,75.42-1.41,9.92-12.05,12.02-22.66,18.21-36.02,16.51-35.59,59.66-24.21,55.45,13.1-2.84,25.19-28.5,35.27-48.32,13.19-2.3-2.56-9.15-11.4-9.45-10.62-.91,2.34-5.65,12.64-6.11,13.66-.26.59-.6,1.29-.26,1.94,4.92,9.34,14.06,18.61,22.83,21.7,32.48,11.42,62.25-17.33,58.68-50.02Z"/>
  <path class="cls-1" d="M124.44,104.84c6.23-21.54-13.64-32.05-32.42-29.53-26.58,3.57-42.9,28.27-40.12,54.17,5.76-3.39,10.88-7.61,17.19-10.34,1.38-15.45,13.99-29.26,30.23-28.22,11.95.76,11.98,10.06,4.15,16.78-9.45,8.11-23.22,9.39-34.18,14.72-7.09,3.45-12.59,8.9-19.07,12.57-2.6,1.47-5.2,3.08-7.58.25-3.35-3.97,1.61-9.16,5.92-9.51-.04-5.37.12-10.79,1.69-15.97-10.78-.13-21.4,5.63-24.45,16.43-5.83,20.64,14.09,33.69,31.99,22.52,9.83-6.14,12.08-11.11,24.53-14.92,16.02-4.9,36.76-10.4,42.13-28.96Z"/>
</svg>