<?xml version="1.0" encoding="UTF-8"?>
<svg id="Capa_1" data-name="Capa 1" xmlns="http://www.w3.org/2000/svg" viewBox="0 0 193.14 176.91">
  <defs>
    <style>
      .cls-1 {
        fill: #fff;
      }
    </style>
  </defs>
  <path class="cls-1" d="M96.57,49.63c-21.41,0-38.82,17.42-38.82,38.82s17.42,38.82,38.82,38.82,38.82-17.42,38.82-38.82-17.42-38.82-38.82-38.82ZM130.27,88.45c0,18.58-15.12,33.7-33.7,33.7s-33.7-15.12-33.7-33.7,15.12-33.7,33.7-33.7,33.7,15.12,33.7,33.7Z"/>
  <path class="cls-1" d="M114.55,86.24l-27.33-15.98c-.8-.47-1.78-.47-2.57-.01-.79.45-1.29,1.3-1.29,2.22v31.97c0,.91.49,1.77,1.29,2.23.39.22.83.33,1.27.33s.9-.12,1.29-.35l27.33-15.98c.78-.46,1.27-1.3,1.27-2.21s-.49-1.75-1.27-2.21ZM108.19,88.45l-19.69,11.52v-23.03l19.69,11.51Z"/>
</svg>