<?xml version="1.0" encoding="UTF-8"?>
<svg id="Capa_1" data-name="Capa 1" xmlns="http://www.w3.org/2000/svg" viewBox="0 0 193.14 176.91">
  <defs>
    <style>
      .cls-1 {
        fill: #fff;
      }
    </style>
  </defs>
  <path class="cls-1" d="M111.78,90.32c-.67,0-1.19.46-1.19,1.05v8.47h-23.46v-8.47c0-.59-.52-1.05-1.19-1.05s-1.19.46-1.19,1.05v9.52c0,.59.52,1.05,1.19,1.05h25.84c.67,0,1.19-.46,1.19-1.05v-9.52c0-.59-.52-1.05-1.19-1.05Z"/>
  <path class="cls-1" d="M97.93,95.81c.22.27.57.43.94.43s.72-.16.94-.43l2.73-3.3c.21-.25.29-.58.23-.89-.06-.3-.24-.56-.52-.73-.51-.31-1.21-.21-1.59.25l-.61.73v-14.36c0-.62-.53-1.12-1.19-1.12s-1.19.5-1.19,1.12v14.36l-.61-.73c-.37-.45-1.07-.56-1.59-.25-.27.17-.46.43-.52.73-.06.32.02.64.23.89l2.73,3.3Z"/>
</svg>